<svg id="visual" viewBox="0 0 900 600" width="900" height="600" xmlns="http://www.w3.org/2000/svg" xmlns:xlink="http://www.w3.org/1999/xlink" version="1.1"><rect x="0" y="0" width="900" height="600" fill="#6496fa"></rect><g fill="#fac864"><path d="M0 -108.5L24.4 -33.5L103.2 -33.5L39.4 12.8L63.8 87.8L0 41.5L-63.8 87.8L-39.4 12.8L-103.2 -33.5L-24.4 -33.5Z" transform="translate(336 53)"></path><path d="M0 -7.6L1.7 -2.3L7.2 -2.3L2.7 0.9L4.4 6.1L0 2.9L-4.4 6.1L-2.7 0.9L-7.2 -2.3L-1.7 -2.3Z" transform="translate(102 113)"></path><path d="M0 -36.8L8.3 -11.4L35 -11.4L13.4 4.3L21.6 29.8L0 14.1L-21.6 29.8L-13.4 4.3L-35 -11.4L-8.3 -11.4Z" transform="translate(722 94)"></path><path d="M0 -52.9L11.9 -16.3L50.3 -16.3L19.2 6.2L31.1 42.8L0 20.2L-31.1 42.8L-19.2 6.2L-50.3 -16.3L-11.9 -16.3Z" transform="translate(68 557)"></path><path d="M0 -68L15.3 -21L64.6 -21L24.7 8L39.9 55L0 26L-39.9 55L-24.7 8L-64.6 -21L-15.3 -21Z" transform="translate(295 514)"></path><path d="M0 -20.8L4.7 -6.4L19.7 -6.4L7.5 2.5L12.2 16.8L0 7.9L-12.2 16.8L-7.5 2.5L-19.7 -6.4L-4.7 -6.4Z" transform="translate(2 336)"></path><path d="M0 -101.9L22.9 -31.5L96.9 -31.5L37 12L59.9 82.5L0 38.9L-59.9 82.5L-37 12L-96.9 -31.5L-22.9 -31.5Z" transform="translate(767 595)"></path><path d="M0 -34.9L7.8 -10.8L33.2 -10.8L12.7 4.1L20.5 28.3L0 13.3L-20.5 28.3L-12.7 4.1L-33.2 -10.8L-7.8 -10.8Z" transform="translate(519 349)"></path><path d="M0 -46.2L10.4 -14.3L44 -14.3L16.8 5.5L27.2 37.4L0 17.7L-27.2 37.4L-16.8 5.5L-44 -14.3L-10.4 -14.3Z" transform="translate(860 297)"></path></g></svg>